<?xml version="1.0" encoding="utf-8"?><!-- Uploaded to: SVG Repo, www.svgrepo.com, Generator: SVG Repo Mixer Tools -->
<svg fill="#000000" width="800px" height="800px" viewBox="0 0 24 24" id="agenda-2" data-name="Flat Line" xmlns="http://www.w3.org/2000/svg" class="icon flat-line"><path id="secondary" d="M18,11h2a1,1,0,0,1,1,1v7l-2,2-2-2V12A1,1,0,0,1,18,11Z" style="fill: rgb(44, 169, 188); stroke-width: 2;"></path><path id="primary" d="M17,7V4a1,1,0,0,0-1-1H5A1,1,0,0,0,4,4V20a1,1,0,0,0,1,1h8" style="fill: none; stroke: rgb(0, 0, 0); stroke-linecap: round; stroke-linejoin: round; stroke-width: 2;"></path><path id="primary-2" data-name="primary" d="M18,11h2a1,1,0,0,1,1,1v7l-2,2-2-2V12A1,1,0,0,1,18,11ZM3,8H5M3,12H5M3,16H5" style="fill: none; stroke: rgb(0, 0, 0); stroke-linecap: round; stroke-linejoin: round; stroke-width: 2;"></path></svg>